<svg xmlns="http://www.w3.org/2000/svg" width="349" height="383" fill="none"><g clip-path="url(#a)"><path fill="#e87052" d="m172 381-2-1-3-12-2-7-52 11h-2l-1-2v-10h1c0-3 1-4 3-6l42-26 2-1 1-2-2-10-4-32v-87h-23v1l-1 3c0 2-1 3-2 3-2 0-3-1-3-3l-1-3v-1h-2v1c0 2-1 3-3 3-1 0-2-1-2-3l-1-1h-3l-16 4-1 3v3l-3 3-3-3v-4l-30 9v6l-3 3c-2 0-2-1-3-3v-3l-1-1-44 13-1 2v1l-2 1a2 2 0 0 1-2-2v-12l4-8 4-4 98-50-2-2-1-12-1-1 1-13v-1l1-5v-3l2-1h18l2 1 1 3 1 5a143 143 0 0 0 1 2l1 3-1 4a86 86 0 0 1-1 9l19-10 2-2 1-4V74a180 180 0 0 1 2-35 89 89 0 0 1 9-26c0-1 3-7 6-9l4-2a4 4 0 0 1 1 0h1l3 2c3 2 6 8 6 9l5 12a89 89 0 0 1 6 25v77l1 4 2 2 19 10a107 107 0 0 1 0-6l-1-3-1-4 1-3 1-1a143 143 0 0 0 1-6l1-3 2-1h18l2 1 1 3 1 5v15l-2 12-2 2 98 50 4 4 4 8v13l-2 1a2 2 0 0 1-2-2l-1-2-44-13v1l-1 3c0 2-1 3-3 3-1 0-2-1-2-3l-1-3v-3l-30-9v4l-3 3-3-3v-6l-17-4h-3v1l-3 3c-2 0-3-1-3-3v-1h-2v1l-1 3c0 2-1 3-3 3-1 0-2-1-2-3l-1-3v-1h-23v87l-4 32a454 454 0 0 1-1 12l2 1 42 26a8 8 0 0 1 4 6v10a2 2 0 0 1-3 2l-52-11-2 7-3 12-2 1h-5Z"/><path fill="#000" d="m175 4 3 1c3 3 5 9 5 9l5 12a87 87 0 0 1 6 24v78l1 4 3 3 22 11v-7l-1-6-1-3 1-2h1v-2l1-6 1-2h18l1 2 1 6v13l-2 13h-3v3l100 51 3 3 4 8v11l-1-4-48-14v4l-1 3-1 1-1-1v-8l-33-9-1 3v2l-1 2-1-2v-2l-1-4-18-5h-5v3l-1 1-1-1v-3h-6v3l-1 2-1 2v-2l-1-2v-3h-27v89l-4 31-2 12 2 2 2 2 42 26 3 4v10l-55-12-2 10-3 11h-5l-3-11-2-10-54 12v-10c0-2 0-3 2-4l42-26 2-2 2-2a376 376 0 0 1-6-43v-89h-27a74 74 0 0 1-1 5v2l-1-2-1-2v-3h-5l-1 3-1 1v-1l-1-3h-5l-18 5a83 83 0 0 1-1 6l-1 2-1-2v-5l-34 9v8l-1 1-1-1v-3l-1-4-48 14-1 4v-11l4-8 3-3 100-51v-3h-3l-2-13v-13l2-6v-2h18l1 2 1 6 1 2 1 2-1 3-1 6v7l22-11 3-3 1-4V50a97 97 0 0 1 6-24l5-12s2-6 5-9l3-1h1m0-4a6 6 0 0 0-2 0l-4 2c-4 3-6 8-7 10l-5 12a90 90 0 0 0-6 26v77l-1 3-1 2-16 7 1-2v-3l1-4-1-4-1-1-1-6-1-3-4-2h-18l-3 2-1 3-1 6v1l-1 13 1 1a141 141 0 0 0 2 14l-96 48v1l-4 3-5 10v12l1 2c0 2 2 2 3 2a4 4 0 0 0 4-4l1-1 41-12v3c1 4 3 4 5 4 1 0 4 0 5-4v-6l26-7a43 43 0 0 0 0 1c1 4 4 5 5 5s4-1 5-5v-4l15-4h2c1 4 3 4 4 4s3 0 4-2c1 4 3 5 5 5 1 0 3-1 4-5l1-2h19v85l4 32a367 367 0 0 0 1 10l-1 2-42 25v1a10 10 0 0 0-4 7v10a4 4 0 0 0 4 4l51-11 1 6 3 11c1 2 2 3 4 3h5c2 0 3-1 4-3l3-11 1-6 51 11h1l2-1 2-3v-11a10 10 0 0 0-5-7l-42-25-1-2h-1l2-10 4-32v-85h19l1 2c1 4 3 5 4 5 2 0 4-1 5-5 1 2 3 2 4 2s4 0 4-4h2l15 4v4c1 4 4 5 5 5s4-1 5-5v-1l26 7v3l1 2v1c0 4 3 4 4 4 2 0 4 0 5-4v-3l42 12v3c1 2 2 2 4 2a4 4 0 0 0 4-4v-12l-4-10-4-3-1-1-96-48 1-1 2-13v-15l-2-6v-3l-4-2h-18l-4 2-1 3-1 6-1 1-1 4a16 16 0 0 0 1 5l1 2v2l-15-7-2-2-1-3V74a182 182 0 0 0-2-36 92 92 0 0 0-9-26c-1-2-3-7-7-10a14 14 0 0 0-4-2h-1Z"/></g><defs><clipPath id="a"><path fill="#e87052" d="M1 0h347v383H1z"/></clipPath></defs></svg>