<svg xmlns="http://www.w3.org/2000/svg" version="1.0" width="320" height="320" viewBox="0 0 64.000000 64.000000">
 <g transform="matrix(1,0,0,-1,0,64)">
 v2.0 14 November 2016 - Peter Lowden - peter@lowden.nz
  <path d="m 32,0.1 0.1,0 0.2,0.1 0.2,0.2 0.3,0.4 0.4,0.9 0.5,1.6 0.5,2.4 0.3,2.3 0.2,2.8 0,9.6 0.9,0.7 5.1,4.8 -0.2,-0.9 0,-1.2 0.1,-1.1 0.2,-0.2 2.3,0 0.2,0.2 0.1,1.1 0,1.2 -0.2,2 -0.1,-0.3 -0.1,0.3 -0.2,-0.3 -0.2,0.9 5.5,5.1 -0.1,-0.7 0,-1.2 0.1,-1.1 0.2,-0.2 2.3,0 0.2,0.2 0.1,1.1 0,1.2 -0.2,2 -0.1,-0.3 -0.1,0.3 -0.2,-0.3 -0.1,0.9 7.6,6.3 1,1.3 0.8,1.3 0.7,1.5 0,0.7 -2.1,-1.6 -10.8,-6.2 0,0.5 -0.1,0.5 -0.3,-0.5 -0.1,-0.7 -2.4,-1.4 0,0.4 -0.1,0.5 -0.3,-0.5 -0.1,-0.7 -0.8,-0.4 -3.6,-1.7 0,0.5 -0.1,0.5 -0.3,-0.5 -0.1,-0.7 -1.8,-0.5 0,0.5 -0.1,0.5 -0.3,-0.5 -0.1,-0.7 -2.1,-0.6 0,13.3 -0.3,3.8 -0.2,1.6 -0.4,1.9 0.2,0.4 6.8,6.6 0.2,0.3 0.1,0.3 0,1.8 -8.5,-2.5 -0.5,1.6 0,1.4 -0.1,0.1 -0.1,-0.1 0,-1.4 -0.5,-1.6 -8.5,2.5 0,-1.8 0.1,-0.3 0.2,-0.3 6.8,-6.6 0.2,-0.4 -0.4,-1.9 -0.2,-1.6 -0.3,-3.8 0,-13.3 -2.1,0.6 -0.1,0.7 -0.3,0.5 -0.1,-0.5 0,-0.5 -1.8,0.5 -0.1,0.7 -0.3,0.5 -0.1,-0.5 0,-0.5 -3.6,1.7 -0.8,0.4 -0.1,0.7 -0.3,0.5 -0.1,-0.5 0,-0.4 -2.4,1.4 -0.1,0.7 -0.3,0.5 -0.1,-0.5 0,-0.5 -10.8,6.2 -2.1,1.6 0,-0.7 0.7,-1.5 0.8,-1.3 1,-1.3 7.7,-6.4 -0.2,-0.8 -0.2,0.3 -0.1,-0.3 -0.1,0.3 -0.2,-2 0,-1.2 0.1,-1.1 0.2,-0.2 2.3,0 0.2,0.2 0.1,1.1 0,1.2 -0.1,0.7 5.5,-5.1 -0.2,-0.9 -0.2,0.3 -0.1,-0.3 -0.1,0.3 -0.2,-2 0,-1.2 0.1,-1.1 0.2,-0.2 2.3,0 0.2,0.2 0.1,1.1 0,1.2 -0.2,0.9 5.1,-4.8 0.9,-0.7 0,-9.6 0.2,-2.8 0.3,-2.3 0.5,-2.4 0.5,-1.6 0.4,-0.9 0.3,-0.4 0.2,-0.2 0.2,-0.1 z" fill="#ccffff" stroke="#0014aa" stroke-width="0.1"/>
 </g>
</svg>
